<?xml version="1.0" encoding="UTF-8"?>
<svg version="1.1" xmlns="http://www.w3.org/2000/svg" width="1840" height="1790">
<path d="M0 0 C1.63462558 -0.00135114 3.26925084 -0.00313755 4.90387553 -0.00531223 C9.35411226 -0.00999015 13.80432826 -0.00855771 18.25456594 -0.00603446 C23.11218057 -0.00438853 27.96979101 -0.00855283 32.82740426 -0.01194364 C41.32769744 -0.0170785 49.82798492 -0.01851817 58.3282795 -0.01748753 C70.96942281 -0.01595858 83.61055986 -0.02013327 96.25170195 -0.02536215 C120.14744981 -0.03502057 144.04319551 -0.03784584 167.93894508 -0.03841921 C186.39837256 -0.03887924 204.8577992 -0.0409401 223.31722641 -0.04411983 C228.63608622 -0.04501742 233.95494604 -0.04590734 239.27380586 -0.04679471 C239.93469673 -0.0469053 240.5955876 -0.04701589 241.27650546 -0.04712983 C279.12963413 -0.05345059 316.98276251 -0.05757931 354.83589172 -0.05712128 C356.25130994 -0.0571055 357.66672815 -0.05708976 359.08214636 -0.05707407 C365.47202693 -0.05700069 371.8619075 -0.05691252 378.25178806 -0.05682018 C381.10094298 -0.05677906 383.9500979 -0.05673891 386.79925281 -0.05669887 C388.22530349 -0.05667848 389.65135416 -0.05665746 391.07740484 -0.05663581 C436.14847573 -0.05595591 481.21953876 -0.06326842 526.29060745 -0.07717609 C537.6437098 -0.08067747 548.99681215 -0.08414709 560.34991455 -0.08744049 C561.39867486 -0.0877448 561.39867486 -0.0877448 562.46862224 -0.08805526 C584.04028188 -0.09427657 605.61194088 -0.09803705 627.18360138 -0.09929848 C628.20047845 -0.0993584 628.20047845 -0.0993584 629.23789849 -0.09941954 C644.12460963 -0.10027308 659.01132074 -0.10053392 673.8980319 -0.10024916 C679.88872572 -0.10014068 685.87941955 -0.10009342 691.87011337 -0.10005856 C693.8358671 -0.10004107 693.8358671 -0.10004107 695.84133303 -0.10002324 C716.88838096 -0.09999253 737.93542223 -0.10636579 758.98246818 -0.11499082 C780.15372976 -0.12348701 801.32498164 -0.12444191 822.49624398 -0.1178815 C835.0562496 -0.11419886 847.61622565 -0.11597958 860.1762281 -0.12582384 C868.58726942 -0.13185636 876.99828949 -0.13049232 885.40932987 -0.12335334 C890.18758832 -0.11949922 894.96578988 -0.11861575 899.74404415 -0.12681069 C972.79590705 -0.24357116 1042.98440332 10.90257263 1109.89656448 41.12863445 C1110.87915237 41.57174969 1111.86174026 42.01486492 1112.87410355 42.47140789 C1140.92148767 55.24056947 1167.81381815 70.88227753 1192.1695137 89.79855633 C1194.77587046 91.80582684 1197.43384074 93.7423389 1200.08406448 95.69113445 C1209.26695888 102.58142021 1217.90587889 110.12994813 1226.38484573 117.86300945 C1227.78209872 119.12336207 1229.18601593 120.37678858 1230.61458206 121.60153484 C1236.32246112 126.50453923 1241.65189678 131.73497051 1246.95906448 137.06613445 C1247.81822464 137.92142742 1248.6773848 138.77672039 1249.56258011 139.65793133 C1254.55074419 144.65371675 1259.30320316 149.77030425 1263.89656448 155.12863445 C1264.89415045 156.25057724 1265.89409157 157.37043108 1266.89656448 158.48800945 C1275.8614483 168.57517381 1283.96708687 179.21550182 1291.89656448 190.12863445 C1292.49646194 190.95025066 1293.09635941 191.77186687 1293.71443558 192.61838055 C1302.94761068 205.32187767 1311.19382867 218.44670941 1318.89656448 232.12863445 C1319.46906937 233.14199871 1320.04157425 234.15536297 1320.63142776 235.19943523 C1363.25205798 311.13544629 1379.08312758 393.48755294 1379.0312334 479.78586197 C1379.02958477 484.37586352 1379.03375396 488.96586066 1379.03714257 493.55586076 C1379.04227317 501.58476711 1379.04371786 509.61366744 1379.04268646 517.64257526 C1379.04115639 529.58281202 1379.04533466 541.52304215 1379.05056109 553.46327761 C1379.0602155 576.03502483 1379.06304462 598.60676976 1379.06361815 621.1785188 C1379.06407832 638.61626984 1379.06613991 656.05401999 1379.06931877 673.49177074 C1379.07021637 678.51770727 1379.07110618 683.54364379 1379.07199365 688.56958032 C1379.0722147 689.8191766 1379.07243575 691.06877288 1379.07266349 692.35623571 C1379.07881499 727.4902926 1379.08277024 762.62434919 1379.08232021 797.75840664 C1379.08230444 799.09554206 1379.0822887 800.43267747 1379.08227301 801.76981289 C1379.08219963 807.80618471 1379.08211146 813.84255652 1379.08201912 819.87892834 C1379.081978 822.57041694 1379.08193785 825.26190554 1379.08189781 827.95339414 C1379.08187741 829.30052954 1379.08185639 830.64766494 1379.08183475 831.99480034 C1379.08115488 874.56952594 1379.08846702 917.14424322 1379.10237503 959.71896648 C1379.10587646 970.44315749 1379.10934611 981.1673485 1379.11263943 991.89153957 C1379.11294374 992.88222952 1379.11294374 992.88222952 1379.1132542 993.89293341 C1379.12416152 1029.61881588 1379.12611569 1065.34469868 1379.12541181 1101.07058263 C1379.12533718 1106.10029141 1379.12528847 1111.13000019 1379.12525749 1116.15970898 C1379.12524584 1117.39807372 1379.12523418 1118.63643845 1379.12522218 1119.9123294 C1379.12519148 1139.79218447 1379.131562 1159.67203248 1379.14018976 1179.55188545 C1379.14869 1199.55242566 1379.14963769 1219.55295561 1379.14308044 1239.55349663 C1379.13940049 1251.41565726 1379.14117033 1263.27778658 1379.15102278 1275.13994386 C1379.15706233 1283.08706225 1379.15568362 1291.03415817 1379.14855228 1298.98127557 C1379.14470397 1303.49372546 1379.14379724 1308.00611518 1379.15200963 1312.51856062 C1379.32369255 1413.73552829 1355.19943705 1512.50560865 1258.50984573 1641.2966032 C1256.1262034 1643.87977314 1253.78865487 1646.49682693 1251.45906448 1649.12863445 C1244.38663603 1656.9995629 1236.92971041 1664.57918659 1228.86531448 1671.4372282 C1226.61874942 1673.36731287 1224.45072544 1675.37281585 1222.27156448 1677.37863445 C1216.67319975 1682.42312748 1210.78986804 1687.04530518 1204.82234573 1691.63986492 C1202.85904421 1693.15764037 1200.90860085 1694.69088718 1198.95906448 1696.2262907 C1183.42766115 1708.3792001 1167.0062079 1719.32264244 1149.89656448 1729.12863445 C1149.22657425 1729.51438641 1148.55658401 1729.90013836 1147.86629105 1730.29757977 C1090.56481934 1763.13562925 1027.52554801 1782.48012562 961.89656448 1789.12863445 C961.0420835 1789.21792817 960.18760251 1789.30722188 959.30722817 1789.39922146 C950.58965535 1790.22433381 941.91584392 1790.27062618 933.17032528 1790.26006222 C931.49098986 1790.26171465 929.81165483 1790.2638022 928.13232043 1790.26628232 C923.5253118 1790.27182276 918.91832185 1790.27118138 914.31131096 1790.26950473 C909.29591956 1790.26877138 904.28053334 1790.27380186 899.26514417 1790.27807975 C889.32089552 1790.28564808 879.37665225 1790.28785222 869.43240102 1790.2884088 C857.51916658 1790.28932362 845.60593708 1790.29599473 833.69270477 1790.30275563 C805.58101926 1790.31842629 777.46933374 1790.32450322 749.35764484 1790.32916266 C735.04579884 1790.33154809 720.73395331 1790.33525205 706.42210767 1790.33919975 C660.48144803 1790.35186433 614.54078841 1790.36264702 568.60012705 1790.36604021 C566.40517346 1790.36620245 564.21021987 1790.36636801 562.01526628 1790.3665346 C557.61346623 1790.36686839 553.21166618 1790.36719887 548.80986613 1790.36752915 C543.65674837 1790.36791604 538.50363061 1790.36830565 533.35051286 1790.36870022 C531.87566466 1790.36881264 530.40081646 1790.36892406 528.92596826 1790.36903447 C481.5919828 1790.37258141 434.25801253 1790.3876495 386.92403287 1790.41097222 C352.90378308 1790.42772812 318.88353617 1790.44319497 284.8632822 1790.44770718 C283.81240946 1790.4478474 283.81240946 1790.4478474 282.74030697 1790.44799047 C267.35581818 1790.45001015 251.97132943 1790.45116567 236.58684051 1790.45151905 C231.08088532 1790.45165521 225.57493014 1790.4518642 220.06897496 1790.4521123 C218.69933712 1790.45217387 217.32969927 1790.45223219 215.96006143 1790.45228725 C194.18985404 1790.45320479 172.41966257 1790.46314554 150.64946041 1790.47774474 C128.08703979 1790.49281454 105.52463862 1790.4969225 82.96221384 1790.48865178 C69.97342587 1790.48421005 56.98470311 1790.48799754 43.99592377 1790.50389029 C35.29882136 1790.51369395 26.60176427 1790.51241105 17.9046622 1790.50245406 C12.96287502 1790.49710054 8.02121234 1790.49622558 3.07943585 1790.50896278 C-101.47295307 1790.76104831 -202.78587467 1758.66618948 -298.10343552 1683.12863445 C-298.64564743 1682.67665691 -299.18785934 1682.22467937 -299.74650192 1681.75900555 C-307.07191613 1675.6425808 -314.03920195 1669.34911288 -320.70890427 1662.5231657 C-322.69207122 1660.53999875 -324.69053034 1658.72037574 -326.85343552 1656.94113445 C-330.03229579 1654.30592724 -332.62704472 1651.33035657 -335.29484177 1648.1872282 C-337.10628649 1646.12538939 -339.00724921 1644.22486734 -340.97843552 1642.31613445 C-344.87155034 1638.47532636 -348.28660336 1634.34990887 -351.70499802 1630.0856657 C-353.73911043 1627.57781049 -355.82337712 1625.12755264 -357.941082 1622.69040203 C-376.7613298 1600.91555574 -392.34987171 1576.34811362 -406.10343552 1551.12863445 C-406.59940231 1550.22177898 -407.09536911 1549.31492352 -407.6063652 1548.38058758 C-431.52068071 1504.36104471 -447.27841885 1456.70068094 -455.79093552 1407.37863445 C-456.07650314 1405.76057903 -456.07650314 1405.76057903 -456.36783981 1404.10983562 C-460.6437231 1378.11701526 -461.55027165 1352.35876922 -461.48883818 1326.08954981 C-461.48110732 1321.32733645 -461.49105471 1316.56515053 -461.49856818 1311.80294126 C-461.50932077 1303.48720618 -461.5091259 1295.1715297 -461.5014267 1286.85579205 C-461.49000855 1274.48927143 -461.4959169 1262.12279961 -461.50505162 1249.75627925 C-461.52079722 1227.66046599 -461.51950029 1205.56467886 -461.51081488 1183.46886316 C-461.50325148 1164.13116631 -461.50130589 1144.79347901 -461.50488281 1125.45578098 C-461.50511197 1124.17026684 -461.50534112 1122.8847527 -461.50557722 1121.56028358 C-461.50651132 1116.34121658 -461.50746653 1111.12214958 -461.50845651 1105.90308259 C-461.51119035 1091.31650281 -461.51291909 1076.72992298 -461.51381493 1062.14334297 C-461.51385586 1061.4792824 -461.5138968 1060.81522182 -461.51393898 1060.1310382 C-461.51516554 1038.99327039 -461.51179275 1017.85550588 -461.50526619 996.71773911 C-461.50505544 996.03286101 -461.5048447 995.34798292 -461.50462756 994.64235095 C-461.50119335 983.52269351 -461.49753466 972.40303614 -461.49385704 961.28337878 C-461.47929059 917.19313259 -461.47996515 873.10291373 -461.4945488 829.01266766 C-461.49821284 817.89960292 -461.50184619 806.78653817 -461.50526619 795.67347336 C-461.50547753 794.98905589 -461.50568888 794.30463842 -461.50590663 793.59948102 C-461.51238235 772.4832266 -461.51511665 751.36697445 -461.51381493 730.25071907 C-461.51377417 729.58714208 -461.51373342 728.92356508 -461.51369143 728.23987969 C-461.51271161 713.01458027 -461.51059984 697.78928112 -461.50771201 682.56398195 C-461.50674994 677.35442253 -461.50581141 672.14486311 -461.50488281 666.93530369 C-461.50464558 665.65269256 -461.50440835 664.37008144 -461.50416393 663.04860331 C-461.50075993 643.729701 -461.50472662 624.4108093 -461.51232147 605.09190845 C-461.52091976 583.11177298 -461.5187112 561.13166757 -461.50247924 539.15153582 C-461.49370668 526.86918557 -461.49304253 514.58690054 -461.50441776 502.30455206 C-461.51119188 494.07897313 -461.50687434 485.85344601 -461.49390346 477.6278747 C-461.48683315 472.95572093 -461.48418654 468.2836958 -461.4951214 463.61154652 C-461.60673895 412.02171222 -454.27015881 362.29273548 -438.10343552 313.12863445 C-437.82564255 312.26689617 -437.54784958 311.40515789 -437.26163864 310.51730633 C-420.46609802 258.65234838 -392.42479409 208.26437584 -356.63077927 167.05832195 C-354.14013864 164.17118058 -351.74161311 161.22576778 -349.35343552 158.25363445 C-346.33167083 154.53826185 -343.20173167 151.10568188 -339.75968552 147.7809782 C-338.06577132 146.09105909 -336.52595232 144.32803539 -334.97843552 142.50363445 C-327.97070038 134.38858225 -320.21949279 126.73270193 -312.04874802 119.79269695 C-309.75110619 117.82724431 -307.52470428 115.79133574 -305.29093552 113.75363445 C-300.03521332 109.02823362 -294.65079536 104.5070276 -289.10343552 100.12863445 C-288.38816696 99.56257488 -287.67289841 98.99651531 -286.93595505 98.41330242 C-213.40939272 40.53196737 -123.03641209 6.07482223 0 0 Z " fill="#1C3D4F" transform="translate(461.1034355163574,-0.12863445281982422)"/>
<path d="M0 0 C1.02786621 0.00027191 2.05573242 0.00054382 3.11474609 0.00082397 C19.51147033 0.02069976 35.74290039 0.47194055 52.0625 2.1875 C52.99078613 2.27870117 53.91907227 2.36990234 54.87548828 2.46386719 C67.76156905 3.76641481 80.43018267 6.1128092 93.125 8.625 C93.86412628 8.77021088 94.60325256 8.91542175 95.36477661 9.06503296 C104.01115028 10.77586685 112.47306663 12.74249527 120.91796875 15.28515625 C124.25608528 16.24305056 127.60786649 17.00835252 131 17.75 C185.50708936 30.67320344 239.64642515 59.74678269 284.0625 93.1875 C284.66094727 93.63432129 285.25939453 94.08114258 285.87597656 94.54150391 C294.21016521 100.77445823 302.18545152 107.39223285 310.0625 114.1875 C310.80242188 114.82558594 311.54234375 115.46367188 312.3046875 116.12109375 C314.23415247 117.79872092 316.14870898 119.4920199 318.0625 121.1875 C318.75569336 121.79658203 319.44888672 122.40566406 320.16308594 123.03320312 C326.80712971 128.93094497 333.15167657 135.09046499 339.4309082 141.37060547 C341.12107346 143.05857855 342.81910834 144.73835724 344.51757812 146.41796875 C350.43838781 152.30903049 356.00019418 158.27909027 361.18237305 164.83984375 C362.97982391 167.08426493 364.85847531 169.20416723 366.8125 171.3125 C373.01955581 178.23244539 378.50453882 185.74559206 384.0625 193.1875 C384.60600098 193.91146973 385.14950195 194.63543945 385.70947266 195.38134766 C394.56099345 207.21622785 402.50993154 219.487996 410.0625 232.1875 C410.57167969 233.04214844 411.08085938 233.89679688 411.60546875 234.77734375 C442.68064542 287.26163956 463.21536596 345.22265604 472.375 405.5 C472.55993011 406.69887344 472.55993011 406.69887344 472.74859619 407.92196655 C476.18715381 430.4776613 477.44851049 453.01090168 477.375 475.8125 C477.37384186 476.93826447 477.37268372 478.06402893 477.37149048 479.22390747 C477.33468907 497.40267791 476.48815204 515.16224829 474.0625 533.1875 C473.83139151 535.04809773 473.60088748 536.90877068 473.37109375 538.76953125 C471.53598071 553.00158756 468.85062032 567.11588204 466.0625 581.1875 C465.90700684 581.97543945 465.75151367 582.76337891 465.59130859 583.57519531 C454.33949584 639.09452055 429.00706515 693.50523283 397.75 740.4375 C397.02167969 741.5313501 396.29335937 742.6252002 395.54296875 743.75219727 C390.60962938 751.07568147 385.42721936 758.17482871 380.0625 765.1875 C379.55211182 765.85652344 379.04172363 766.52554688 378.51586914 767.21484375 C364.6441224 785.28181002 349.38235291 801.94370499 333.3125 818.0625 C332.81672455 818.56095428 332.3209491 819.05940857 331.81015015 819.57296753 C326.07548472 825.33111867 320.2681186 830.9354068 314.0625 836.1875 C313.00627955 837.09999325 311.95027757 838.01273948 310.89453125 838.92578125 C258.00942714 884.01152978 195.15116318 917.91162279 128.0625 936.1875 C126.6583953 936.58823944 125.25477813 936.99068969 123.8515625 937.39453125 C101.75725697 943.71714577 79.61312568 947.60504866 56.8125 950.3125 C56.08933594 950.39894775 55.36617187 950.48539551 54.62109375 950.57446289 C2.24871988 956.79427635 -53.97114878 955.37097826 -105.2253418 941.89794922 C-107.83874898 941.21336781 -110.4586411 940.59874463 -113.09375 940.00390625 C-149.34349311 931.60822626 -183.70703382 917.75475297 -216.9375 901.1875 C-217.79714355 900.75969238 -218.65678711 900.33188477 -219.54248047 899.89111328 C-250.29079617 884.46494335 -279.3768451 864.60114137 -305.45458984 842.16796875 C-307.65768239 840.27691224 -309.87232703 838.40169694 -312.10253906 836.54272461 C-320.57838756 829.44004885 -328.5246509 821.91250405 -336.31665039 814.0690918 C-338.25900484 812.11594512 -340.21192958 810.1738238 -342.16601562 808.23242188 C-348.49811889 801.90658078 -354.55163831 795.5504708 -360.08227539 788.50195312 C-361.97522408 786.14043798 -363.98089933 783.94577802 -366.0625 781.75 C-373.32857819 773.75099566 -379.57373119 764.90612223 -385.9375 756.1875 C-386.52724609 755.38521973 -387.11699219 754.58293945 -387.72460938 753.75634766 C-403.25694028 732.53321642 -416.18462467 709.68437721 -427.9375 686.1875 C-428.32953613 685.41664063 -428.72157227 684.64578125 -429.12548828 683.8515625 C-436.92375729 668.4642381 -442.91545456 652.32888891 -448.9375 636.1875 C-449.32856934 635.15044922 -449.71963867 634.11339844 -450.12255859 633.04492188 C-458.43148318 610.87271675 -464.37178918 587.67157293 -468.54492188 564.37158203 C-468.92562929 562.25354192 -469.32877939 560.14073666 -469.734375 558.02734375 C-472.41778136 543.54809509 -473.68243035 528.8481545 -474.9375 514.1875 C-475.03683838 513.03048584 -475.13617676 511.87347168 -475.23852539 510.68139648 C-476.08100333 499.66594096 -476.13852291 488.66767226 -476.125 477.625 C-476.12406342 476.63406342 -476.12312683 475.64312683 -476.12216187 474.62216187 C-476.0393158 434.00269443 -471.95872936 393.46334216 -460.55664062 354.35693359 C-459.96157058 352.27184196 -459.40354931 350.18091758 -458.859375 348.08203125 C-452.66427048 324.38652145 -443.91286375 301.52520305 -433.9375 279.1875 C-433.55770996 278.3301123 -433.17791992 277.47272461 -432.78662109 276.58935547 C-426.7078934 262.96612695 -419.44292812 250.06801409 -411.9375 237.1875 C-411.4331543 236.31416016 -410.92880859 235.44082031 -410.40917969 234.54101562 C-402.91944676 221.59836163 -394.72438849 209.28429308 -385.9375 197.1875 C-385.40592285 196.4548291 -384.8743457 195.7221582 -384.32666016 194.96728516 C-377.99672885 186.28720062 -371.37615672 177.93184529 -364.33935547 169.81591797 C-362.87927767 168.119868 -361.43999597 166.40780098 -360.00390625 164.69140625 C-353.3533899 156.77474433 -346.34235838 149.3989078 -338.9375 142.1875 C-336.04866764 139.31770443 -333.18667952 136.42313856 -330.3359375 133.515625 C-323.68117822 126.75351757 -317.08252976 120.16943077 -309.61328125 114.3046875 C-307.18908184 112.38656184 -304.84818036 110.39583243 -302.51635742 108.3671875 C-251.66523896 64.33343717 -185.93873333 30.60633117 -120.4453125 15.29296875 C-117.34140535 14.56293464 -114.32058626 13.69729907 -111.28125 12.734375 C-104.73051659 10.73735407 -98.03899563 9.49619596 -91.3125 8.25 C-90.62507721 8.12154694 -89.93765442 7.99309387 -89.22940063 7.86074829 C-78.56761554 5.88200299 -67.88306086 4.23264666 -57.125 2.875 C-55.26270752 2.63632202 -55.26270752 2.63632202 -53.36279297 2.39282227 C-35.61898609 0.26248679 -17.85167034 -0.01787912 0 0 Z " fill="#FDFDFD" transform="translate(899.9375,430.8125)"/>
<path d="M0 0 C0.9796875 0.43054688 1.959375 0.86109375 2.96875 1.3046875 C10.14487789 4.65717149 16.09701027 8.73625112 22 14 C22.71027344 14.62777344 23.42054688 15.25554688 24.15234375 15.90234375 C35.90944471 26.9373195 43.97346234 43.25336161 45.27099609 59.36499023 C45.36603205 62.91526219 45.36498433 66.44887717 45.3125 70 C45.30049561 71.27238525 45.28849121 72.54477051 45.27612305 73.85571289 C44.92734623 97.36327026 40.67871816 118.91905897 33.6574707 141.32568359 C31.57717135 147.98646374 29.72162577 154.67557689 28 161.4375 C25.22800594 172.29701015 22.113082 183.03678071 18.94287109 193.78564453 C16.21967841 203.06932004 13.57442705 212.37567089 10.93896484 221.68457031 C10.33716284 223.80949783 9.73349174 225.93389743 9.12744141 228.05761719 C5.45956954 240.93958182 2.34537026 253.81022398 0 267 C-0.226875 268.24136719 -0.45375 269.48273438 -0.6875 270.76171875 C-3.19476064 286.03163251 -4.07466711 302.68053262 4.42578125 316.28125 C11.48463487 323.98818696 22.48836306 325.84294799 32.4609375 326.390625 C49.83343223 326.90933815 64.9066831 323.62904901 80.9375 317.171875 C84 316 84 316 86 316 C84.09087114 324.86526325 82.15437635 333.72135026 79.875 342.5 C79.56304688 343.7065625 79.25109375 344.913125 78.9296875 346.15625 C78 349 78 349 76 351 C73.40461751 352.00002873 70.82150479 352.92679413 68.1875 353.8125 C66.62971249 354.34882235 65.07242405 354.8865964 63.515625 355.42578125 C62.74541016 355.69213379 61.97519531 355.95848633 61.18164062 356.23291016 C57.18362893 357.63865688 53.24236448 359.18705269 49.29296875 360.72265625 C43.56521901 362.94445241 37.81479538 365.10114373 32.05175781 367.22949219 C30.06360684 367.97611338 28.09054255 368.75430736 26.1171875 369.5390625 C7.42784184 376.80392284 -11.61453339 379.46312712 -31.5625 379.5 C-32.30641998 379.50449158 -33.05033997 379.50898315 -33.81680298 379.51361084 C-47.65128778 379.54764872 -61.69414909 378.18225574 -74.75 373.3125 C-75.44552979 373.05831299 -76.14105957 372.80412598 -76.85766602 372.54223633 C-88.12626172 368.22822484 -97.46709326 361.48884698 -106 353 C-106.69738281 352.33742188 -107.39476562 351.67484375 -108.11328125 350.9921875 C-122.82468919 335.96655531 -126.26179526 315.79982209 -126.32128906 295.64794922 C-126.11180288 277.57835083 -122.72797554 259.41422046 -118 242 C-117.75378906 241.08605469 -117.50757813 240.17210937 -117.25390625 239.23046875 C-113.93886021 227.00127977 -110.37415205 214.86022823 -106.63232422 202.75561523 C-103.74023118 193.31616744 -101.19859519 183.78967343 -98.67578125 174.24609375 C-97.51499142 169.87174163 -96.29862607 165.51715417 -95.046875 161.16796875 C-92.91731477 153.7612245 -90.91585257 146.323364 -88.9375 138.875 C-88.42993164 136.97427734 -88.42993164 136.97427734 -87.91210938 135.03515625 C-83.19201875 117.30514464 -78.75126203 100.37955434 -78.6875 81.9375 C-78.68210205 80.98641357 -78.6767041 80.03532715 -78.67114258 79.05541992 C-78.77969827 68.31406994 -80.51573477 59.48426523 -88.3125 51.6875 C-97.51447811 45.90951375 -107.24745655 45.81904182 -117.8125 45.8125 C-118.84181641 45.80025391 -119.87113281 45.78800781 -120.93164062 45.77539062 C-130.67055223 45.75691072 -139.36505104 47.64945601 -148.625 50.5 C-154.05447853 52.15288553 -159.48363945 53.66119789 -165 55 C-163.95617724 48.51731131 -162.62227803 42.12577838 -161.0625 35.75 C-160.90491211 35.08935547 -160.74732422 34.42871094 -160.58496094 33.74804688 C-160.10337056 31.81975516 -159.55197838 29.90933446 -159 28 C-158.68160156 26.77925781 -158.36320313 25.55851563 -158.03515625 24.30078125 C-154.95049735 19.29783159 -150.77796491 18.30244324 -145.375 16.4375 C-144.34479736 16.05964355 -143.31459473 15.68178711 -142.25317383 15.29248047 C-139.17691166 14.17058605 -136.08995826 13.08349186 -133 12 C-131.34944613 11.40198228 -129.69962904 10.80192451 -128.05078125 10.19921875 C-121.46159201 7.80929772 -114.84246175 5.58160121 -108.10546875 3.640625 C-106.10790658 3.03283243 -104.19180589 2.32782392 -102.25 1.5625 C-71.14573733 -10.34313962 -31.0258979 -14.04020063 0 0 Z " fill="#1C3D4F" transform="translate(922,820)"/>
<path d="M0 0 C2.39990737 1.90909925 4.6914985 3.8931991 6.97265625 5.94140625 C7.98328125 6.68390625 8.99390625 7.42640625 10.03515625 8.19140625 C19.04213086 15.79104108 25.84844252 27.64617198 28.97265625 38.94140625 C29.15699219 39.53566406 29.34132813 40.12992188 29.53125 40.7421875 C33.73926959 56.15224543 30.87054093 72.76098037 23.78515625 86.81640625 C20.23076233 92.94206386 15.99649522 97.97569434 10.97265625 102.94140625 C10.22371094 103.71226562 9.47476563 104.483125 8.703125 105.27734375 C-8.06546616 121.57318856 -27.78376213 124.55395666 -50.2421875 124.28515625 C-67.19617565 123.72368845 -81.44704905 115.967541 -94.02734375 104.94140625 C-94.72730469 104.33683594 -95.42726563 103.73226562 -96.1484375 103.109375 C-107.04262794 93.02216163 -114.64544685 78.57894612 -115.3984375 63.671875 C-115.87181457 41.94234024 -110.45611271 24.75399848 -95.33984375 8.69140625 C-87.07115997 0.79564911 -76.98875124 -5.68847157 -66.02734375 -9.05859375 C-65.1146875 -9.35507812 -64.20203125 -9.6515625 -63.26171875 -9.95703125 C-42.27308342 -15.82308574 -18.07583586 -12.29156839 0 0 Z " fill="#1C3D4F" transform="translate(985.02734375,626.05859375)"/>
</svg>
